<svg width="175" height="35" fill="none" xmlns="http://www.w3.org/2000/svg"><path d="M40.179 6.672V28h-3.677V6.672h3.677Zm8.7 9.33v2.916h-9.638v-2.915h9.639Zm1.217-9.33v2.93H39.24v-2.93h10.855Zm6.357 5.478V28h-3.545V12.15h3.545Zm-3.78-4.16c0-.537.177-.981.528-1.333.361-.361.86-.542 1.494-.542.625 0 1.118.18 1.48.542.361.352.542.796.542 1.333 0 .528-.18.967-.542 1.319-.361.351-.855.527-1.48.527-.635 0-1.133-.176-1.494-.527-.351-.352-.527-.791-.527-1.319ZM64.1 5.5V28h-3.545V5.5H64.1Zm7.397 9.873V28h-3.53V12.15h3.325l.205 3.223Zm-.571 4.116-1.201-.014c0-1.094.136-2.105.41-3.033.273-.927.674-1.733 1.2-2.417A5.28 5.28 0 0 1 73.3 12.43c.79-.381 1.704-.572 2.74-.572.722 0 1.38.108 1.977.323a3.919 3.919 0 0 1 1.567.981c.45.45.791 1.026 1.025 1.729.245.703.367 1.552.367 2.549V28h-3.53V17.746c0-.771-.118-1.377-.352-1.816a1.948 1.948 0 0 0-.982-.938c-.42-.195-.922-.293-1.508-.293-.664 0-1.23.127-1.7.381-.459.254-.835.6-1.128 1.04-.293.44-.507.947-.644 1.524a7.972 7.972 0 0 0-.205 1.845Zm9.829-.937-1.655.366c0-.957.131-1.86.395-2.71a6.91 6.91 0 0 1 1.187-2.256 5.57 5.57 0 0 1 1.948-1.538c.771-.371 1.655-.557 2.651-.557.81 0 1.533.113 2.168.337a3.973 3.973 0 0 1 1.64 1.026c.45.468.792 1.079 1.026 1.83.235.743.352 1.641.352 2.696V28h-3.545V17.731c0-.8-.117-1.42-.352-1.86-.224-.44-.547-.742-.966-.908-.42-.176-.923-.264-1.51-.264-.546 0-1.03.103-1.45.308-.41.195-.756.473-1.04.835a3.719 3.719 0 0 0-.644 1.216 5.21 5.21 0 0 0-.205 1.494Zm12.67 1.699v-.337c0-1.143.167-2.202.499-3.179.332-.986.81-1.84 1.435-2.563a6.477 6.477 0 0 1 2.315-1.7c.918-.41 1.953-.615 3.105-.615 1.162 0 2.198.206 3.106.616.918.4 1.694.966 2.329 1.699.635.723 1.118 1.577 1.45 2.563.332.977.498 2.037.498 3.18v.336c0 1.143-.166 2.202-.498 3.179a7.602 7.602 0 0 1-1.45 2.563 6.717 6.717 0 0 1-2.315 1.7c-.908.4-1.938.6-3.09.6-1.162 0-2.203-.2-3.12-.6a6.72 6.72 0 0 1-2.315-1.7 7.61 7.61 0 0 1-1.45-2.563c-.332-.977-.498-2.036-.498-3.179Zm3.531-.337v.337c0 .713.073 1.387.22 2.021a5.14 5.14 0 0 0 .688 1.67c.313.479.713.855 1.201 1.128.489.274 1.07.41 1.744.41.654 0 1.22-.136 1.699-.41a3.41 3.41 0 0 0 1.201-1.128 5.14 5.14 0 0 0 .688-1.67 8.396 8.396 0 0 0 .235-2.021v-.337c0-.703-.078-1.367-.235-1.992a5.091 5.091 0 0 0-.703-1.685 3.36 3.36 0 0 0-1.201-1.142c-.478-.284-1.05-.425-1.714-.425-.664 0-1.24.142-1.728.425a3.401 3.401 0 0 0-1.187 1.142 5.314 5.314 0 0 0-.688 1.685 8.709 8.709 0 0 0-.22 1.992Zm21.431-7.764v2.579h-8.936V12.15h8.936Zm-6.358-3.881h3.531V23.62c0 .488.068.864.205 1.128.146.254.346.425.6.513.254.088.552.132.894.132.244 0 .478-.015.703-.044.225-.03.405-.059.542-.088l.015 2.695a9.012 9.012 0 0 1-1.026.234c-.381.069-.82.103-1.318.103-.811 0-1.529-.142-2.154-.425-.625-.293-1.113-.766-1.464-1.42-.352-.655-.528-1.524-.528-2.608V8.269Zm16.07 20.024c-1.172 0-2.232-.19-3.179-.571a7.01 7.01 0 0 1-2.402-1.626 7.19 7.19 0 0 1-1.509-2.447 8.557 8.557 0 0 1-.528-3.032v-.586c0-1.24.181-2.363.542-3.369.362-1.006.865-1.865 1.509-2.578a6.486 6.486 0 0 1 2.285-1.655 7.108 7.108 0 0 1 2.857-.572c1.133 0 2.124.19 2.973.572.85.38 1.553.918 2.11 1.611.566.684.986 1.5 1.26 2.446.283.948.424 1.992.424 3.135v1.509h-12.246v-2.534h8.76v-.279a4.933 4.933 0 0 0-.381-1.787 3.03 3.03 0 0 0-1.04-1.347c-.469-.342-1.094-.513-1.875-.513-.586 0-1.108.127-1.567.38-.449.245-.825.601-1.128 1.07-.303.469-.537 1.035-.703 1.7-.157.654-.235 1.39-.235 2.211v.586c0 .694.093 1.338.279 1.934.195.586.478 1.098.849 1.538.371.44.821.786 1.348 1.04.527.244 1.128.366 1.802.366.849 0 1.606-.17 2.27-.513a5.213 5.213 0 0 0 1.729-1.45l1.86 1.802a7.257 7.257 0 0 1-1.333 1.436c-.547.449-1.216.815-2.007 1.098-.781.283-1.689.425-2.724.425ZM140.755 5.5V28h-3.545V5.5h3.545Zm9.844 6.65-6.9 7.647-3.779 3.867-.923-2.988 2.857-3.53 4.482-4.996h4.263ZM147.098 28l-5.142-7.441 2.227-2.476L151.185 28h-4.087Zm14.677-3.179v-7.558c0-.567-.102-1.055-.307-1.465a2.154 2.154 0 0 0-.938-.952c-.41-.225-.927-.337-1.552-.337-.577 0-1.075.097-1.495.293a2.41 2.41 0 0 0-.981.79 1.911 1.911 0 0 0-.352 1.129h-3.515c0-.625.151-1.23.454-1.817.303-.586.742-1.108 1.318-1.567.576-.46 1.265-.82 2.066-1.084.8-.264 1.699-.396 2.695-.396 1.191 0 2.246.2 3.164.601.928.4 1.655 1.006 2.183 1.816.537.801.805 1.807.805 3.018v7.046c0 .723.049 1.372.147 1.948.107.566.259 1.06.454 1.48V28h-3.618c-.166-.38-.298-.864-.396-1.45a11.828 11.828 0 0 1-.132-1.729Zm.513-6.46.029 2.183h-2.534c-.654 0-1.23.063-1.728.19-.498.118-.913.293-1.245.528a2.302 2.302 0 0 0-.748.85 2.488 2.488 0 0 0-.249 1.127c0 .42.098.806.293 1.157.196.342.479.61.85.806.381.195.84.293 1.377.293.723 0 1.353-.146 1.89-.44.547-.302.976-.668 1.289-1.098.312-.44.478-.855.498-1.245l1.142 1.567c-.117.4-.317.83-.6 1.29a6.243 6.243 0 0 1-1.114 1.318c-.449.41-.991.747-1.626 1.01-.624.264-1.347.396-2.167.396-1.036 0-1.958-.205-2.769-.615-.811-.42-1.445-.982-1.904-1.685-.459-.713-.689-1.518-.689-2.417 0-.84.156-1.582.469-2.226a4.362 4.362 0 0 1 1.406-1.641c.625-.44 1.387-.771 2.285-.996.899-.235 1.924-.352 3.077-.352h2.768Z" fill="#fff"/><path d="M19.82 7H4.18A2.18 2.18 0 0 0 2 9.18v15.64A2.18 2.18 0 0 0 4.18 27h15.64A2.18 2.18 0 0 0 22 24.82V9.18A2.18 2.18 0 0 0 19.82 7ZM7 7v20M17 7v20M2 17h20M2 12h5M2 22h5M17 22h5M17 12h5" stroke="#fff" stroke-width="2" stroke-linecap="round" stroke-linejoin="round"/></svg>