<svg width="16" height="16" viewBox="0 0 16 16" fill="none" xmlns="http://www.w3.org/2000/svg">
<rect x="0.5" y="0.5" width="15" height="15" fill="black"/>
<path d="M4.91406 9.45312V6.25H5.50488V10H4.97021L4.91406 9.45312ZM3.19531 8.7085V8.65723C3.19531 8.45703 3.21891 8.27474 3.26611 8.11035C3.31331 7.94434 3.38167 7.80192 3.47119 7.68311C3.56071 7.56266 3.66976 7.4707 3.79834 7.40723C3.92692 7.34212 4.07178 7.30957 4.23291 7.30957C4.39242 7.30957 4.53239 7.34049 4.65283 7.40234C4.77327 7.46419 4.87581 7.5529 4.96045 7.66846C5.04508 7.78239 5.11263 7.91911 5.16309 8.07861C5.21354 8.23649 5.24935 8.41227 5.27051 8.60596V8.76953C5.24935 8.95833 5.21354 9.13086 5.16309 9.28711C5.11263 9.44336 5.04508 9.57845 4.96045 9.69238C4.87581 9.80632 4.77246 9.89421 4.65039 9.95605C4.52995 10.0179 4.38916 10.0488 4.22803 10.0488C4.06852 10.0488 3.92448 10.0155 3.7959 9.94873C3.66895 9.882 3.56071 9.78841 3.47119 9.66797C3.38167 9.54753 3.31331 9.40592 3.26611 9.24316C3.21891 9.07878 3.19531 8.90055 3.19531 8.7085ZM3.78369 8.65723V8.7085C3.78369 8.82894 3.79427 8.94124 3.81543 9.04541C3.83822 9.14958 3.87321 9.24154 3.92041 9.32129C3.96761 9.39941 4.02865 9.46126 4.10352 9.50684C4.18001 9.55078 4.27116 9.57275 4.37695 9.57275C4.51042 9.57275 4.62028 9.54346 4.70654 9.48486C4.79281 9.42627 4.86035 9.34733 4.90918 9.24805C4.95964 9.14714 4.99382 9.03483 5.01172 8.91113V8.46924C5.00195 8.37321 4.98161 8.28369 4.95068 8.20068C4.92139 8.11768 4.88151 8.04525 4.83105 7.9834C4.7806 7.91992 4.71794 7.87109 4.64307 7.83691C4.56982 7.80111 4.48275 7.7832 4.38184 7.7832C4.27441 7.7832 4.18327 7.80599 4.1084 7.85156C4.03353 7.89714 3.97168 7.9598 3.92285 8.03955C3.87565 8.1193 3.84066 8.21208 3.81787 8.31787C3.79508 8.42367 3.78369 8.53678 3.78369 8.65723ZM7.60938 9.47021V8.21045C7.60938 8.11605 7.59229 8.03467 7.55811 7.96631C7.52393 7.89795 7.47184 7.84505 7.40186 7.80762C7.3335 7.77018 7.24723 7.75146 7.14307 7.75146C7.04704 7.75146 6.96403 7.76774 6.89404 7.80029C6.82406 7.83285 6.76953 7.87679 6.73047 7.93213C6.69141 7.98747 6.67188 8.05013 6.67188 8.12012H6.08594C6.08594 8.01595 6.11117 7.91504 6.16162 7.81738C6.21208 7.71973 6.28532 7.63265 6.38135 7.55615C6.47738 7.47965 6.59212 7.41943 6.72559 7.37549C6.85905 7.33154 7.00879 7.30957 7.1748 7.30957C7.37337 7.30957 7.54915 7.34294 7.70215 7.40967C7.85677 7.4764 7.97803 7.57731 8.06592 7.7124C8.15544 7.84587 8.2002 8.01351 8.2002 8.21533V9.38965C8.2002 9.51009 8.20833 9.61833 8.22461 9.71436C8.24251 9.80876 8.26774 9.89095 8.30029 9.96094V10H7.69727C7.6696 9.93652 7.64762 9.85596 7.63135 9.7583C7.6167 9.65902 7.60938 9.56299 7.60938 9.47021ZM7.69482 8.39355L7.69971 8.75732H7.27734C7.16829 8.75732 7.07227 8.7679 6.98926 8.78906C6.90625 8.80859 6.83708 8.83789 6.78174 8.87695C6.7264 8.91602 6.6849 8.96322 6.65723 9.01855C6.62956 9.07389 6.61572 9.13656 6.61572 9.20654C6.61572 9.27653 6.632 9.34082 6.66455 9.39941C6.6971 9.45638 6.7443 9.50114 6.80615 9.53369C6.86963 9.56624 6.94613 9.58252 7.03564 9.58252C7.15609 9.58252 7.26107 9.55811 7.35059 9.50928C7.44173 9.45882 7.51335 9.39779 7.56543 9.32617C7.61751 9.25293 7.64518 9.18376 7.64844 9.11865L7.83887 9.37988C7.81934 9.44661 7.78597 9.51823 7.73877 9.59473C7.69157 9.67122 7.62972 9.74447 7.55322 9.81445C7.47835 9.88281 7.38802 9.93896 7.28223 9.98291C7.17806 10.0269 7.05762 10.0488 6.9209 10.0488C6.74837 10.0488 6.59456 10.0146 6.45947 9.94629C6.32438 9.8763 6.21859 9.78271 6.14209 9.66553C6.06559 9.54671 6.02734 9.41243 6.02734 9.2627C6.02734 9.12272 6.05339 8.99902 6.10547 8.8916C6.15918 8.78255 6.2373 8.69141 6.33984 8.61816C6.44401 8.54492 6.57096 8.48958 6.7207 8.45215C6.87044 8.41309 7.04134 8.39355 7.2334 8.39355H7.69482ZM9.40625 7.86133V10H8.81787V7.3584H9.37939L9.40625 7.86133ZM10.2144 7.34131L10.2095 7.88818C10.1737 7.88167 10.1346 7.87679 10.0923 7.87354C10.0516 7.87028 10.0109 7.86865 9.97021 7.86865C9.8693 7.86865 9.7806 7.8833 9.7041 7.9126C9.6276 7.94027 9.56331 7.98096 9.51123 8.03467C9.46077 8.08675 9.42171 8.15023 9.39404 8.2251C9.36637 8.29997 9.3501 8.38379 9.34521 8.47656L9.21094 8.48633C9.21094 8.32031 9.22721 8.1665 9.25977 8.0249C9.29232 7.8833 9.34115 7.75879 9.40625 7.65137C9.47298 7.54395 9.55599 7.46012 9.65527 7.3999C9.75618 7.33968 9.87256 7.30957 10.0044 7.30957C10.0402 7.30957 10.0785 7.31283 10.1191 7.31934C10.1615 7.32585 10.1932 7.33317 10.2144 7.34131ZM11.1763 6.25V10H10.5854V6.25H11.1763ZM12.8169 7.3584L11.667 8.63281L11.0371 9.27734L10.8833 8.7793L11.3594 8.19092L12.1064 7.3584H12.8169ZM12.2334 10L11.3765 8.75977L11.7476 8.34717L12.9146 10H12.2334Z" fill="white"/>
<rect x="0.5" y="0.5" width="15" height="15" stroke="white"/>
</svg>
