<svg width="16" height="16" viewBox="0 0 16 16" fill="none" xmlns="http://www.w3.org/2000/svg">
<rect x="0.5" y="0.5" width="15" height="15" fill="white"/>
<path d="M3.93262 5.91699V9.66699H3.3418V5.91699H3.93262ZM5.20703 7.02539V9.66699H4.61621V7.02539H5.20703ZM4.57715 6.33203C4.57715 6.24251 4.60645 6.16846 4.66504 6.10986C4.72526 6.04964 4.80827 6.01953 4.91406 6.01953C5.01823 6.01953 5.10042 6.04964 5.16064 6.10986C5.22087 6.16846 5.25098 6.24251 5.25098 6.33203C5.25098 6.41992 5.22087 6.49316 5.16064 6.55176C5.10042 6.61035 5.01823 6.63965 4.91406 6.63965C4.80827 6.63965 4.72526 6.61035 4.66504 6.55176C4.60645 6.49316 4.57715 6.41992 4.57715 6.33203ZM7.54346 7.02539H8.07812V9.59375C8.07812 9.83138 8.02767 10.0332 7.92676 10.1992C7.82585 10.3652 7.68506 10.4914 7.50439 10.5776C7.32373 10.6655 7.11458 10.7095 6.87695 10.7095C6.77604 10.7095 6.66374 10.6948 6.54004 10.6655C6.41797 10.6362 6.29915 10.589 6.18359 10.5239C6.06966 10.4604 5.97445 10.3766 5.89795 10.2725L6.17383 9.92578C6.26823 10.0381 6.3724 10.1203 6.48633 10.1724C6.60026 10.2244 6.71989 10.2505 6.84521 10.2505C6.98031 10.2505 7.09505 10.2253 7.18945 10.1748C7.28548 10.126 7.35954 10.0535 7.41162 9.95752C7.4637 9.86149 7.48975 9.7443 7.48975 9.60596V7.62354L7.54346 7.02539ZM5.74902 8.37549V8.32422C5.74902 8.12402 5.77344 7.94173 5.82227 7.77734C5.87109 7.61133 5.94108 7.46891 6.03223 7.3501C6.12337 7.22965 6.23405 7.1377 6.36426 7.07422C6.49447 7.00911 6.64176 6.97656 6.80615 6.97656C6.97705 6.97656 7.12272 7.00749 7.24316 7.06934C7.36523 7.13118 7.46696 7.21989 7.54834 7.33545C7.62972 7.44938 7.6932 7.5861 7.73877 7.74561C7.78597 7.90348 7.82096 8.07926 7.84375 8.27295V8.43652C7.82259 8.62533 7.78678 8.79785 7.73633 8.9541C7.68587 9.11035 7.61914 9.24544 7.53613 9.35938C7.45312 9.47331 7.35059 9.5612 7.22852 9.62305C7.10807 9.6849 6.96566 9.71582 6.80127 9.71582C6.64014 9.71582 6.49447 9.68245 6.36426 9.61572C6.23568 9.54899 6.125 9.4554 6.03223 9.33496C5.94108 9.21452 5.87109 9.07292 5.82227 8.91016C5.77344 8.74577 5.74902 8.56755 5.74902 8.37549ZM6.3374 8.32422V8.37549C6.3374 8.49593 6.3488 8.60824 6.37158 8.7124C6.396 8.81657 6.43262 8.90853 6.48145 8.98828C6.5319 9.06641 6.59538 9.12826 6.67188 9.17383C6.75 9.21777 6.84196 9.23975 6.94775 9.23975C7.0861 9.23975 7.19922 9.21045 7.28711 9.15186C7.37663 9.09326 7.44499 9.01432 7.49219 8.91504C7.54102 8.81413 7.5752 8.70182 7.59473 8.57812V8.13623C7.58496 8.0402 7.56462 7.95068 7.53369 7.86768C7.50439 7.78467 7.46452 7.71224 7.41406 7.65039C7.36361 7.58691 7.30013 7.53809 7.22363 7.50391C7.14714 7.4681 7.0568 7.4502 6.95264 7.4502C6.84684 7.4502 6.75488 7.47298 6.67676 7.51855C6.59863 7.56413 6.53434 7.62679 6.48389 7.70654C6.43506 7.7863 6.39844 7.87907 6.37402 7.98486C6.34961 8.09066 6.3374 8.20378 6.3374 8.32422ZM9.26953 5.91699V9.66699H8.68359V5.91699H9.26953ZM9.16699 8.24854L8.97656 8.24609C8.97819 8.0638 9.00342 7.89535 9.05225 7.74072C9.1027 7.5861 9.17269 7.45182 9.26221 7.33789C9.35335 7.22233 9.4624 7.13363 9.58936 7.07178C9.71631 7.0083 9.8571 6.97656 10.0117 6.97656C10.1419 6.97656 10.2591 6.99447 10.3633 7.03027C10.4691 7.06608 10.5602 7.12386 10.6367 7.20361C10.7132 7.28174 10.771 7.38428 10.8101 7.51123C10.8507 7.63656 10.8711 7.78955 10.8711 7.97021V9.66699H10.2803V7.96533C10.2803 7.83838 10.2616 7.73747 10.2241 7.6626C10.1883 7.58773 10.1354 7.53402 10.0654 7.50146C9.99544 7.46729 9.90999 7.4502 9.80908 7.4502C9.70329 7.4502 9.6097 7.47135 9.52832 7.51367C9.44857 7.55599 9.38184 7.61377 9.32812 7.68701C9.27441 7.76025 9.23372 7.84489 9.20605 7.94092C9.18001 8.03695 9.16699 8.13949 9.16699 8.24854ZM12.6777 7.02539V7.45508H11.1885V7.02539H12.6777ZM11.6182 6.37842H12.2065V8.93701C12.2065 9.01839 12.2179 9.08105 12.2407 9.125C12.2651 9.16732 12.2985 9.1958 12.3408 9.21045C12.3831 9.2251 12.4328 9.23242 12.4897 9.23242C12.5304 9.23242 12.5695 9.22998 12.6069 9.2251C12.6444 9.22021 12.6745 9.21533 12.6973 9.21045L12.6997 9.65967C12.6509 9.67432 12.5939 9.68734 12.5288 9.69873C12.4653 9.71012 12.3921 9.71582 12.3091 9.71582C12.174 9.71582 12.0544 9.69222 11.9502 9.64502C11.846 9.59619 11.7646 9.51725 11.7061 9.4082C11.6475 9.29915 11.6182 9.1543 11.6182 8.97363V6.37842Z" fill="black"/>
<rect x="0.5" y="0.5" width="15" height="15" stroke="black"/>
</svg>
