<svg width="175" height="35" viewBox="0 0 175 35" fill="none" xmlns="http://www.w3.org/2000/svg">
<path d="M40.1787 6.67188V28H36.502V6.67188H40.1787ZM48.8799 16.0029V18.918H39.2412V16.0029H48.8799ZM50.0957 6.67188V9.60156H39.2412V6.67188H50.0957ZM56.4531 12.1504V28H52.9082V12.1504H56.4531ZM52.6738 7.99023C52.6738 7.45312 52.8496 7.00879 53.2012 6.65723C53.5625 6.2959 54.0605 6.11523 54.6953 6.11523C55.3203 6.11523 55.8135 6.2959 56.1748 6.65723C56.5361 7.00879 56.7168 7.45312 56.7168 7.99023C56.7168 8.51758 56.5361 8.95703 56.1748 9.30859C55.8135 9.66016 55.3203 9.83594 54.6953 9.83594C54.0605 9.83594 53.5625 9.66016 53.2012 9.30859C52.8496 8.95703 52.6738 8.51758 52.6738 7.99023ZM64.0996 5.5V28H60.5547V5.5H64.0996ZM71.4971 15.373V28H67.9668V12.1504H71.292L71.4971 15.373ZM70.9258 19.4893L69.7246 19.4746C69.7246 18.3809 69.8613 17.3701 70.1348 16.4424C70.4082 15.5146 70.8086 14.709 71.3359 14.0254C71.8633 13.332 72.5176 12.7998 73.2988 12.4287C74.0898 12.0479 75.0029 11.8574 76.0381 11.8574C76.7607 11.8574 77.4199 11.9648 78.0156 12.1797C78.6211 12.3848 79.1436 12.7119 79.583 13.1611C80.0322 13.6104 80.374 14.1865 80.6084 14.8896C80.8525 15.5928 80.9746 16.4424 80.9746 17.4385V28H77.4443V17.7461C77.4443 16.9746 77.3271 16.3691 77.0928 15.9297C76.8682 15.4902 76.541 15.1777 76.1113 14.9922C75.6914 14.7969 75.1885 14.6992 74.6025 14.6992C73.9385 14.6992 73.3721 14.8262 72.9033 15.0801C72.4443 15.334 72.0684 15.6807 71.7754 16.1201C71.4824 16.5596 71.2676 17.0674 71.1309 17.6436C70.9941 18.2197 70.9258 18.835 70.9258 19.4893ZM80.7549 18.5518L79.0996 18.918C79.0996 17.9609 79.2314 17.0576 79.4951 16.208C79.7686 15.3486 80.1641 14.5967 80.6816 13.9521C81.209 13.2979 81.8584 12.7852 82.6299 12.4141C83.4014 12.043 84.2852 11.8574 85.2812 11.8574C86.0918 11.8574 86.8145 11.9697 87.4492 12.1943C88.0938 12.4092 88.6406 12.751 89.0898 13.2197C89.5391 13.6885 89.8809 14.2988 90.1152 15.0508C90.3496 15.793 90.4668 16.6914 90.4668 17.7461V28H86.9219V17.7314C86.9219 16.9307 86.8047 16.3105 86.5703 15.8711C86.3457 15.4316 86.0234 15.1289 85.6035 14.9629C85.1836 14.7871 84.6807 14.6992 84.0947 14.6992C83.5479 14.6992 83.0645 14.8018 82.6445 15.0068C82.2344 15.2021 81.8877 15.4805 81.6045 15.8418C81.3213 16.1934 81.1064 16.5986 80.96 17.0576C80.8232 17.5166 80.7549 18.0146 80.7549 18.5518ZM93.4258 20.251V19.9141C93.4258 18.7715 93.5918 17.7119 93.9238 16.7354C94.2559 15.749 94.7344 14.8945 95.3594 14.1719C95.9941 13.4395 96.7656 12.873 97.6738 12.4727C98.5918 12.0625 99.627 11.8574 100.779 11.8574C101.941 11.8574 102.977 12.0625 103.885 12.4727C104.803 12.873 105.579 13.4395 106.214 14.1719C106.849 14.8945 107.332 15.749 107.664 16.7354C107.996 17.7119 108.162 18.7715 108.162 19.9141V20.251C108.162 21.3936 107.996 22.4531 107.664 23.4297C107.332 24.4062 106.849 25.2607 106.214 25.9932C105.579 26.7158 104.808 27.2822 103.899 27.6924C102.991 28.0928 101.961 28.293 100.809 28.293C99.6465 28.293 98.6064 28.0928 97.6885 27.6924C96.7803 27.2822 96.0088 26.7158 95.374 25.9932C94.7393 25.2607 94.2559 24.4062 93.9238 23.4297C93.5918 22.4531 93.4258 21.3936 93.4258 20.251ZM96.9561 19.9141V20.251C96.9561 20.9639 97.0293 21.6377 97.1758 22.2725C97.3223 22.9072 97.5518 23.4639 97.8643 23.9424C98.1768 24.4209 98.5771 24.7969 99.0654 25.0703C99.5537 25.3438 100.135 25.4805 100.809 25.4805C101.463 25.4805 102.029 25.3438 102.508 25.0703C102.996 24.7969 103.396 24.4209 103.709 23.9424C104.021 23.4639 104.251 22.9072 104.397 22.2725C104.554 21.6377 104.632 20.9639 104.632 20.251V19.9141C104.632 19.2109 104.554 18.5469 104.397 17.9219C104.251 17.2871 104.017 16.7256 103.694 16.2373C103.382 15.749 102.981 15.3682 102.493 15.0947C102.015 14.8115 101.443 14.6699 100.779 14.6699C100.115 14.6699 99.5391 14.8115 99.0508 15.0947C98.5723 15.3682 98.1768 15.749 97.8643 16.2373C97.5518 16.7256 97.3223 17.2871 97.1758 17.9219C97.0293 18.5469 96.9561 19.2109 96.9561 19.9141ZM118.387 12.1504V14.7285H109.451V12.1504H118.387ZM112.029 8.26855H115.56V23.6201C115.56 24.1084 115.628 24.4844 115.765 24.748C115.911 25.002 116.111 25.1729 116.365 25.2607C116.619 25.3486 116.917 25.3926 117.259 25.3926C117.503 25.3926 117.737 25.3779 117.962 25.3486C118.187 25.3193 118.367 25.29 118.504 25.2607L118.519 27.9561C118.226 28.0439 117.884 28.1221 117.493 28.1904C117.112 28.2588 116.673 28.293 116.175 28.293C115.364 28.293 114.646 28.1514 114.021 27.8682C113.396 27.5752 112.908 27.1016 112.557 26.4473C112.205 25.793 112.029 24.9238 112.029 23.8398V8.26855ZM128.099 28.293C126.927 28.293 125.867 28.1025 124.92 27.7217C123.982 27.3311 123.182 26.7891 122.518 26.0957C121.863 25.4023 121.36 24.5869 121.009 23.6494C120.657 22.7119 120.481 21.7012 120.481 20.6172V20.0312C120.481 18.791 120.662 17.668 121.023 16.6621C121.385 15.6562 121.888 14.7969 122.532 14.084C123.177 13.3613 123.938 12.8096 124.817 12.4287C125.696 12.0479 126.648 11.8574 127.674 11.8574C128.807 11.8574 129.798 12.0479 130.647 12.4287C131.497 12.8096 132.2 13.3467 132.757 14.04C133.323 14.7236 133.743 15.5391 134.017 16.4863C134.3 17.4336 134.441 18.4785 134.441 19.6211V21.1299H122.195V18.5957H130.955V18.3174C130.936 17.6826 130.809 17.0869 130.574 16.5303C130.35 15.9736 130.003 15.5244 129.534 15.1826C129.065 14.8408 128.44 14.6699 127.659 14.6699C127.073 14.6699 126.551 14.7969 126.092 15.0508C125.643 15.2949 125.267 15.6514 124.964 16.1201C124.661 16.5889 124.427 17.1553 124.261 17.8193C124.104 18.4736 124.026 19.2109 124.026 20.0312V20.6172C124.026 21.3105 124.119 21.9551 124.305 22.5508C124.5 23.1367 124.783 23.6494 125.154 24.0889C125.525 24.5283 125.975 24.875 126.502 25.1289C127.029 25.373 127.63 25.4951 128.304 25.4951C129.153 25.4951 129.91 25.3242 130.574 24.9824C131.238 24.6406 131.814 24.1572 132.303 23.5322L134.163 25.334C133.821 25.832 133.377 26.3105 132.83 26.7695C132.283 27.2188 131.614 27.585 130.823 27.8682C130.042 28.1514 129.134 28.293 128.099 28.293ZM140.755 5.5V28H137.21V5.5H140.755ZM150.599 12.1504L143.699 19.7969L139.92 23.6641L138.997 20.6758L141.854 17.1455L146.336 12.1504H150.599ZM147.098 28L141.956 20.5586L144.183 18.083L151.185 28H147.098ZM161.775 24.8213V17.2627C161.775 16.6963 161.673 16.208 161.468 15.7979C161.263 15.3877 160.95 15.0703 160.53 14.8457C160.12 14.6211 159.603 14.5088 158.978 14.5088C158.401 14.5088 157.903 14.6064 157.483 14.8018C157.063 14.9971 156.736 15.2607 156.502 15.5928C156.268 15.9248 156.15 16.3008 156.15 16.7207H152.635C152.635 16.0957 152.786 15.4902 153.089 14.9043C153.392 14.3184 153.831 13.7959 154.407 13.3369C154.983 12.8779 155.672 12.5166 156.473 12.2529C157.273 11.9893 158.172 11.8574 159.168 11.8574C160.359 11.8574 161.414 12.0576 162.332 12.458C163.26 12.8584 163.987 13.4639 164.515 14.2744C165.052 15.0752 165.32 16.0811 165.32 17.292V24.3379C165.32 25.0605 165.369 25.71 165.467 26.2861C165.574 26.8525 165.726 27.3457 165.921 27.7656V28H162.303C162.137 27.6191 162.005 27.1357 161.907 26.5498C161.819 25.9541 161.775 25.3779 161.775 24.8213ZM162.288 18.3613L162.317 20.5439H159.783C159.129 20.5439 158.553 20.6074 158.055 20.7344C157.557 20.8516 157.142 21.0273 156.81 21.2617C156.478 21.4961 156.229 21.7793 156.062 22.1113C155.896 22.4434 155.813 22.8193 155.813 23.2393C155.813 23.6592 155.911 24.0449 156.106 24.3965C156.302 24.7383 156.585 25.0068 156.956 25.2021C157.337 25.3975 157.796 25.4951 158.333 25.4951C159.056 25.4951 159.686 25.3486 160.223 25.0557C160.77 24.7529 161.199 24.3867 161.512 23.957C161.824 23.5176 161.99 23.1025 162.01 22.7119L163.152 24.2793C163.035 24.6797 162.835 25.1094 162.552 25.5684C162.269 26.0273 161.897 26.4668 161.438 26.8867C160.989 27.2969 160.447 27.6338 159.812 27.8975C159.188 28.1611 158.465 28.293 157.645 28.293C156.609 28.293 155.687 28.0879 154.876 27.6777C154.065 27.2578 153.431 26.6963 152.972 25.9932C152.513 25.2803 152.283 24.4746 152.283 23.5762C152.283 22.7363 152.439 21.9941 152.752 21.3496C153.074 20.6953 153.543 20.1484 154.158 19.709C154.783 19.2695 155.545 18.9375 156.443 18.7129C157.342 18.4785 158.367 18.3613 159.52 18.3613H162.288Z" fill="white"/>
<path d="M19.82 7H4.18C2.97602 7 2 7.97602 2 9.18V24.82C2 26.024 2.97602 27 4.18 27H19.82C21.024 27 22 26.024 22 24.82V9.18C22 7.97602 21.024 7 19.82 7Z" stroke="white" stroke-width="2" stroke-linecap="round" stroke-linejoin="round"/>
<path d="M7 7V27" stroke="white" stroke-width="2" stroke-linecap="round" stroke-linejoin="round"/>
<path d="M17 7V27" stroke="white" stroke-width="2" stroke-linecap="round" stroke-linejoin="round"/>
<path d="M2 17H22" stroke="white" stroke-width="2" stroke-linecap="round" stroke-linejoin="round"/>
<path d="M2 12H7" stroke="white" stroke-width="2" stroke-linecap="round" stroke-linejoin="round"/>
<path d="M2 22H7" stroke="white" stroke-width="2" stroke-linecap="round" stroke-linejoin="round"/>
<path d="M17 22H22" stroke="white" stroke-width="2" stroke-linecap="round" stroke-linejoin="round"/>
<path d="M17 12H22" stroke="white" stroke-width="2" stroke-linecap="round" stroke-linejoin="round"/>
</svg>
